<svg width="161" height="236" viewBox="0 0 161 236" fill="none" xmlns="http://www.w3.org/2000/svg">
<path fill-rule="evenodd" clip-rule="evenodd" d="M93.2963 173.227C99.8104 196.305 116.052 206.279 131.089 196.524C148.236 185.403 157.049 154.068 159.876 127.697C163.37 95.1324 158.707 56.2388 146.001 29.0718C113.421 -40.5902 56.0345 33.0344 88.0992 85.9482C97.2859 101.086 97.141 112.915 93.5636 131.967C91.2065 144.557 88.8141 157.338 93.2963 173.227ZM120.724 42.1893C130.111 53.057 135.034 78.7746 136.148 95.23L144.156 93.9563C142.788 73.8068 136.988 45.6248 125.619 32.4781L120.724 42.1893ZM27.1672 143.723C24.2724 127.78 22.7107 101.105 28.8577 85.8165L21.9701 79.4529C14.519 97.953 15.8521 127.404 19.3941 146.934L27.1672 143.723ZM69.7291 108.684C86.9626 41.7549 15.8682 4.65718 2.16064 87.4757C-3.18456 119.776 1.77102 158.582 12.8124 187.013C21.7543 210.047 37.4615 234.408 56.1021 235.354C72.45 236.184 85.2044 217.967 85.7551 192.884C86.135 175.608 80.8478 165.014 75.641 154.576C67.752 138.784 64.7896 127.838 69.7291 108.684ZM11.0478 90.8526C21.6062 27.0613 73.7895 54.7504 61.1961 103.633C55.0588 127.462 58.5589 143.371 68.3349 162.955C73.0361 172.373 76.8711 180.005 76.6006 192.425C76.2239 209.593 67.8197 222.061 56.4112 221.48C41.2096 220.709 27.8852 198.442 20.7111 179.971C10.8868 154.678 6.2919 119.586 11.0478 90.8526ZM94.8451 76.5542C71.4196 37.9095 113.431 -16.5562 138.528 37.0994C149.827 61.2652 153.939 96.4988 150.831 125.471C148.564 146.626 141.468 174.691 127.483 183.763C116.989 190.571 106.176 183.568 101.72 167.776C98.4869 156.318 100.239 147.163 102.377 135.773C106.817 112.095 106.299 95.4447 94.8451 76.5542Z" fill="#D17417"/>
</svg>
